<mxfile host="app.diagrams.net" modified="2024-01-02T18:32:14.930Z" agent="Mozilla/5.0 (Windows NT 10.0; Win64; x64) AppleWebKit/537.36 (KHTML, like Gecko) Chrome/120.0.0.0 Safari/537.36 Edg/120.0.0.0" etag="fFwgPLbYj-fQJlLWbroX" version="22.1.16" type="device">
  <diagram name="Page-1" id="O6gY5WuLIbBIDO9lOxRt">
    <mxGraphModel dx="1230" dy="817" grid="1" gridSize="10" guides="1" tooltips="1" connect="1" arrows="1" fold="1" page="1" pageScale="1" pageWidth="827" pageHeight="1169" math="0" shadow="0">
      <root>
        <mxCell id="0" />
        <mxCell id="1" parent="0" />
        <mxCell id="TGl-iJTYoPFEYfC_jH3k-36" style="edgeStyle=orthogonalEdgeStyle;rounded=0;orthogonalLoop=1;jettySize=auto;html=1;exitX=0.5;exitY=1;exitDx=0;exitDy=0;entryX=0.5;entryY=0;entryDx=0;entryDy=0;" edge="1" parent="1" source="TGl-iJTYoPFEYfC_jH3k-19" target="TGl-iJTYoPFEYfC_jH3k-34">
          <mxGeometry relative="1" as="geometry" />
        </mxCell>
        <mxCell id="TGl-iJTYoPFEYfC_jH3k-19" value="Bắt đầu" style="ellipse;whiteSpace=wrap;html=1;" vertex="1" parent="1">
          <mxGeometry x="370" y="20" width="120" height="80" as="geometry" />
        </mxCell>
        <mxCell id="TGl-iJTYoPFEYfC_jH3k-20" style="edgeStyle=orthogonalEdgeStyle;rounded=0;orthogonalLoop=1;jettySize=auto;html=1;exitX=0.5;exitY=1;exitDx=0;exitDy=0;entryX=0.5;entryY=0;entryDx=0;entryDy=0;" edge="1" parent="1" source="TGl-iJTYoPFEYfC_jH3k-21" target="TGl-iJTYoPFEYfC_jH3k-23">
          <mxGeometry relative="1" as="geometry" />
        </mxCell>
        <mxCell id="TGl-iJTYoPFEYfC_jH3k-21" value="Kiểm tra số lần xác thực sai" style="rounded=0;whiteSpace=wrap;html=1;" vertex="1" parent="1">
          <mxGeometry x="370" y="230" width="120" height="60" as="geometry" />
        </mxCell>
        <mxCell id="TGl-iJTYoPFEYfC_jH3k-44" style="edgeStyle=orthogonalEdgeStyle;rounded=0;orthogonalLoop=1;jettySize=auto;html=1;exitX=1;exitY=0.5;exitDx=0;exitDy=0;" edge="1" parent="1" source="TGl-iJTYoPFEYfC_jH3k-23">
          <mxGeometry relative="1" as="geometry">
            <mxPoint x="590" y="360" as="targetPoint" />
          </mxGeometry>
        </mxCell>
        <mxCell id="TGl-iJTYoPFEYfC_jH3k-51" style="edgeStyle=orthogonalEdgeStyle;rounded=0;orthogonalLoop=1;jettySize=auto;html=1;exitX=0.5;exitY=1;exitDx=0;exitDy=0;entryX=0.5;entryY=0;entryDx=0;entryDy=0;" edge="1" parent="1" source="TGl-iJTYoPFEYfC_jH3k-23" target="TGl-iJTYoPFEYfC_jH3k-50">
          <mxGeometry relative="1" as="geometry" />
        </mxCell>
        <mxCell id="TGl-iJTYoPFEYfC_jH3k-23" value="Số lần sai &lt;br&gt;lớn hơn 10" style="rhombus;whiteSpace=wrap;html=1;" vertex="1" parent="1">
          <mxGeometry x="365" y="320" width="130" height="80" as="geometry" />
        </mxCell>
        <mxCell id="TGl-iJTYoPFEYfC_jH3k-53" style="edgeStyle=orthogonalEdgeStyle;rounded=0;orthogonalLoop=1;jettySize=auto;html=1;exitX=0.5;exitY=1;exitDx=0;exitDy=0;entryX=0.5;entryY=0;entryDx=0;entryDy=0;" edge="1" parent="1" source="TGl-iJTYoPFEYfC_jH3k-25" target="TGl-iJTYoPFEYfC_jH3k-27">
          <mxGeometry relative="1" as="geometry" />
        </mxCell>
        <mxCell id="TGl-iJTYoPFEYfC_jH3k-25" value="Tắt chức năng vân tay và thẻ từ" style="rounded=0;whiteSpace=wrap;html=1;" vertex="1" parent="1">
          <mxGeometry x="720" y="90" width="120" height="60" as="geometry" />
        </mxCell>
        <mxCell id="TGl-iJTYoPFEYfC_jH3k-46" style="edgeStyle=orthogonalEdgeStyle;rounded=0;orthogonalLoop=1;jettySize=auto;html=1;exitX=0.5;exitY=1;exitDx=0;exitDy=0;entryX=0.5;entryY=0;entryDx=0;entryDy=0;" edge="1" parent="1" source="TGl-iJTYoPFEYfC_jH3k-27" target="TGl-iJTYoPFEYfC_jH3k-45">
          <mxGeometry relative="1" as="geometry" />
        </mxCell>
        <mxCell id="TGl-iJTYoPFEYfC_jH3k-27" value="Thông báo lên màn hình" style="rounded=0;whiteSpace=wrap;html=1;" vertex="1" parent="1">
          <mxGeometry x="720" y="190" width="120" height="60" as="geometry" />
        </mxCell>
        <mxCell id="TGl-iJTYoPFEYfC_jH3k-29" value="Kết thúc" style="ellipse;whiteSpace=wrap;html=1;" vertex="1" parent="1">
          <mxGeometry x="720" y="380" width="120" height="80" as="geometry" />
        </mxCell>
        <mxCell id="TGl-iJTYoPFEYfC_jH3k-30" value="F" style="text;html=1;align=center;verticalAlign=middle;resizable=0;points=[];autosize=1;strokeColor=none;fillColor=none;" vertex="1" parent="1">
          <mxGeometry x="480" y="331" width="30" height="30" as="geometry" />
        </mxCell>
        <mxCell id="TGl-iJTYoPFEYfC_jH3k-63" style="edgeStyle=orthogonalEdgeStyle;rounded=0;orthogonalLoop=1;jettySize=auto;html=1;exitX=0.5;exitY=1;exitDx=0;exitDy=0;entryX=0.5;entryY=0;entryDx=0;entryDy=0;" edge="1" parent="1" source="TGl-iJTYoPFEYfC_jH3k-33" target="TGl-iJTYoPFEYfC_jH3k-29">
          <mxGeometry relative="1" as="geometry">
            <Array as="points">
              <mxPoint x="590" y="370" />
              <mxPoint x="780" y="370" />
            </Array>
          </mxGeometry>
        </mxCell>
        <mxCell id="TGl-iJTYoPFEYfC_jH3k-33" value="Gán số lần xác thực sai bằng 0" style="rounded=0;whiteSpace=wrap;html=1;" vertex="1" parent="1">
          <mxGeometry x="530" y="230" width="120" height="60" as="geometry" />
        </mxCell>
        <mxCell id="TGl-iJTYoPFEYfC_jH3k-35" style="edgeStyle=orthogonalEdgeStyle;rounded=0;orthogonalLoop=1;jettySize=auto;html=1;exitX=0.5;exitY=1;exitDx=0;exitDy=0;entryX=0.5;entryY=0;entryDx=0;entryDy=0;" edge="1" parent="1" source="TGl-iJTYoPFEYfC_jH3k-34" target="TGl-iJTYoPFEYfC_jH3k-21">
          <mxGeometry relative="1" as="geometry" />
        </mxCell>
        <mxCell id="TGl-iJTYoPFEYfC_jH3k-40" style="edgeStyle=orthogonalEdgeStyle;rounded=0;orthogonalLoop=1;jettySize=auto;html=1;exitX=1;exitY=0.5;exitDx=0;exitDy=0;entryX=0.5;entryY=0;entryDx=0;entryDy=0;" edge="1" parent="1" source="TGl-iJTYoPFEYfC_jH3k-34" target="TGl-iJTYoPFEYfC_jH3k-33">
          <mxGeometry relative="1" as="geometry" />
        </mxCell>
        <mxCell id="TGl-iJTYoPFEYfC_jH3k-34" value="Cửa đang&lt;br&gt;&amp;nbsp;được mở" style="rhombus;whiteSpace=wrap;html=1;" vertex="1" parent="1">
          <mxGeometry x="365" y="120" width="130" height="80" as="geometry" />
        </mxCell>
        <mxCell id="TGl-iJTYoPFEYfC_jH3k-38" value="T" style="text;html=1;align=center;verticalAlign=middle;resizable=0;points=[];autosize=1;strokeColor=none;fillColor=none;" vertex="1" parent="1">
          <mxGeometry x="480" y="130" width="30" height="30" as="geometry" />
        </mxCell>
        <mxCell id="TGl-iJTYoPFEYfC_jH3k-39" value="F" style="text;html=1;align=center;verticalAlign=middle;resizable=0;points=[];autosize=1;strokeColor=none;fillColor=none;" vertex="1" parent="1">
          <mxGeometry x="430" y="200" width="30" height="30" as="geometry" />
        </mxCell>
        <mxCell id="TGl-iJTYoPFEYfC_jH3k-47" style="edgeStyle=orthogonalEdgeStyle;rounded=0;orthogonalLoop=1;jettySize=auto;html=1;exitX=0.5;exitY=1;exitDx=0;exitDy=0;entryX=0.5;entryY=0;entryDx=0;entryDy=0;" edge="1" parent="1" source="TGl-iJTYoPFEYfC_jH3k-45" target="TGl-iJTYoPFEYfC_jH3k-29">
          <mxGeometry relative="1" as="geometry" />
        </mxCell>
        <mxCell id="TGl-iJTYoPFEYfC_jH3k-45" value="Bật còi báo động" style="rounded=0;whiteSpace=wrap;html=1;" vertex="1" parent="1">
          <mxGeometry x="720" y="280" width="120" height="60" as="geometry" />
        </mxCell>
        <mxCell id="TGl-iJTYoPFEYfC_jH3k-55" style="edgeStyle=orthogonalEdgeStyle;rounded=0;orthogonalLoop=1;jettySize=auto;html=1;exitX=1;exitY=0.5;exitDx=0;exitDy=0;entryX=0.5;entryY=0;entryDx=0;entryDy=0;" edge="1" parent="1" source="TGl-iJTYoPFEYfC_jH3k-50" target="TGl-iJTYoPFEYfC_jH3k-29">
          <mxGeometry relative="1" as="geometry">
            <mxPoint x="590" y="460" as="targetPoint" />
            <Array as="points">
              <mxPoint x="590" y="460" />
              <mxPoint x="590" y="370" />
              <mxPoint x="780" y="370" />
            </Array>
          </mxGeometry>
        </mxCell>
        <mxCell id="TGl-iJTYoPFEYfC_jH3k-60" style="edgeStyle=orthogonalEdgeStyle;rounded=0;orthogonalLoop=1;jettySize=auto;html=1;exitX=0.5;exitY=1;exitDx=0;exitDy=0;entryX=0.5;entryY=0;entryDx=0;entryDy=0;" edge="1" parent="1" source="TGl-iJTYoPFEYfC_jH3k-50" target="TGl-iJTYoPFEYfC_jH3k-59">
          <mxGeometry relative="1" as="geometry" />
        </mxCell>
        <mxCell id="TGl-iJTYoPFEYfC_jH3k-50" value="Vân tay và thẻ từ &lt;br&gt;chưa được tắt" style="rhombus;whiteSpace=wrap;html=1;" vertex="1" parent="1">
          <mxGeometry x="360" y="420" width="137.5" height="80" as="geometry" />
        </mxCell>
        <mxCell id="TGl-iJTYoPFEYfC_jH3k-57" value="T" style="text;html=1;align=center;verticalAlign=middle;resizable=0;points=[];autosize=1;strokeColor=none;fillColor=none;" vertex="1" parent="1">
          <mxGeometry x="430" y="390" width="30" height="30" as="geometry" />
        </mxCell>
        <mxCell id="TGl-iJTYoPFEYfC_jH3k-58" value="F" style="text;html=1;align=center;verticalAlign=middle;resizable=0;points=[];autosize=1;strokeColor=none;fillColor=none;" vertex="1" parent="1">
          <mxGeometry x="490" y="430" width="30" height="30" as="geometry" />
        </mxCell>
        <mxCell id="TGl-iJTYoPFEYfC_jH3k-59" value="3" style="ellipse;whiteSpace=wrap;html=1;aspect=fixed;" vertex="1" parent="1">
          <mxGeometry x="410" y="520" width="40" height="40" as="geometry" />
        </mxCell>
        <mxCell id="TGl-iJTYoPFEYfC_jH3k-62" style="edgeStyle=orthogonalEdgeStyle;rounded=0;orthogonalLoop=1;jettySize=auto;html=1;exitX=0.5;exitY=1;exitDx=0;exitDy=0;entryX=0.5;entryY=0;entryDx=0;entryDy=0;" edge="1" parent="1" source="TGl-iJTYoPFEYfC_jH3k-61" target="TGl-iJTYoPFEYfC_jH3k-25">
          <mxGeometry relative="1" as="geometry" />
        </mxCell>
        <mxCell id="TGl-iJTYoPFEYfC_jH3k-61" value="3" style="ellipse;whiteSpace=wrap;html=1;aspect=fixed;" vertex="1" parent="1">
          <mxGeometry x="760" y="20" width="40" height="40" as="geometry" />
        </mxCell>
      </root>
    </mxGraphModel>
  </diagram>
</mxfile>
